<svg xmlns:xlink="http://www.w3.org/1999/xlink" xmlns="http://www.w3.org/2000/svg" width="370.3243243243243" height="74.7438492353074" viewBox="0 0 370.3243243243243 74.7438492353074" class="css-1j8o68f"><defs id="SvgjsDefs1031"></defs><g id="SvgjsG1032" featurekey="symbolFeature-0" transform="matrix(0.877573955034684,0,0,0.877573955034684,-6.029544758989067,-6.061408804313426)" fill="#ffffff"><path xmlns="http://www.w3.org/2000/svg" d="M93.095,58.346c-0.284,2.478-14.725,21.457-23.72,32.792c-0.47,0.518-1.485,0.94-2.265,0.94c-0.074,0-0.147-0.003-0.14,0  c-14.281-2.959-37.554-8.008-39.162-8.921c-2.88-2.381-21.26-43.209-20.933-46.424c0.724-2.18,17.945-18.96,28.64-29.036  c0.44-0.428,1.359-0.79,2.104-0.79c0.003,0,0.006,0,0.009,0c14.629,0.728,38.464,2.204,40.614,3.067  C80.565,12.935,93.482,54.956,93.095,58.346z M9.899,36.73l37.706,4.577c0.978,0.116,2.317-0.384,2.979-1.115l25.429-28.211  c0.562-0.621,0.249-1.176-0.706-1.229L38.521,8.632c-0.821-0.044-1.96,0.384-2.549,0.954L9.622,35.341  C8.942,36.007,9.064,36.634,9.899,36.73z M56.409,17.024c1.236-1.306,3.769-2.252,5.683-2.128c1.926,0.129,2.515,1.305,1.29,2.633  c-1.234,1.336-3.821,2.304-5.758,2.156C55.702,19.536,55.166,18.341,56.409,17.024z M49.543,24.292  c1.287-1.356,3.874-2.322,5.798-2.17c1.944,0.162,2.501,1.403,1.23,2.787c-1.285,1.393-3.929,2.38-5.88,2.202  C48.755,26.931,48.25,25.667,49.543,24.292z M48.314,29.656c1.954,0.19,2.482,1.505,1.151,2.949  c-1.338,1.454-4.039,2.462-6.001,2.247c-1.95-0.215-2.42-1.552-1.068-2.981C43.733,30.453,46.374,29.464,48.314,29.656z   M36.562,15.598c1.257-1.251,3.692-2.165,5.462-2.048c1.784,0.123,2.229,1.247,0.977,2.513c-1.254,1.277-3.743,2.207-5.533,2.07  C35.695,17.999,35.3,16.859,36.562,15.598z M29.581,22.553c1.305-1.3,3.79-2.228,5.57-2.084c1.794,0.147,2.207,1.331,0.905,2.651  c-1.31,1.328-3.845,2.276-5.645,2.112C28.63,25.068,28.265,23.864,29.581,22.553z M22.316,29.787c1.36-1.353,3.893-2.301,5.68-2.128  c1.803,0.176,2.184,1.432,0.833,2.806c-1.364,1.385-3.954,2.353-5.76,2.156C21.274,32.427,20.946,31.151,22.316,29.787z M50,45.058  c-0.434-1.156-1.587-2.199-2.565-2.319l-37.673-4.68c-0.835-0.104-1.105,0.687-0.606,1.764l18.816,40.59  c0.41,0.885,1.374,1.728,2.162,1.898l35.131,7.369c0.907,0.192,1.363-0.408,1.01-1.341L50,45.058z M24.956,55.085  c-1.757-0.271-3.952-2.218-4.917-4.367c-0.979-2.172-0.344-3.745,1.435-3.493c1.791,0.252,4.035,2.249,4.993,4.443  C27.417,53.846,26.733,55.362,24.956,55.085z M34.699,77.066c-1.703-0.336-3.774-2.161-4.644-4.093  c-0.88-1.954-0.213-3.293,1.51-2.979c1.734,0.318,3.851,2.191,4.713,4.162C37.129,76.112,36.417,77.407,34.699,77.066z   M44.938,58.194c-1.908-0.293-4.171-2.318-5.075-4.542c-0.916-2.246-0.109-3.862,1.824-3.591c1.948,0.271,4.266,2.354,5.154,4.626  C47.724,56.938,46.862,58.497,44.938,58.194z M53.998,80.874c-1.84-0.361-3.973-2.257-4.784-4.245  c-0.817-2.013,0.013-3.383,1.874-3.04c1.874,0.346,4.056,2.29,4.852,4.319C56.729,79.921,55.85,81.239,53.998,80.874z   M76.989,12.889L51.653,41.161c-0.662,0.737-0.844,2.277-0.414,3.434L67.39,87.92c0.353,0.937,1.089,1.095,1.646,0.354L90.686,59.64  c0.485-0.642,0.659-1.915,0.388-2.847L78.607,13.819C78.276,12.683,77.554,12.263,76.989,12.889z M71.75,74.231  c-1.154,1.492-2.689,1.078-3.416-0.959c-0.732-2.056-0.362-4.954,0.823-6.444c1.183-1.486,2.703-0.996,3.409,1.058  C73.262,69.922,72.895,72.753,71.75,74.231z M76.714,35.713c-1.158,1.374-2.671,0.677-3.381-1.582  c-0.728-2.289-0.343-5.269,0.844-6.636c1.179-1.356,2.688-0.586,3.377,1.693C78.235,31.443,77.859,34.354,76.714,35.713z"></path></g><g id="SvgjsG1033" featurekey="nameFeature-0" transform="matrix(0.8350815794205692,0,0,0.8350815794205692,94.32983684115887,17.65338047424119)" fill="#ffffff"><path d="M2 40 l0 -32 l6 0 c6 0 6 4.4 6 15.16 c0 12.4 0 16.84 -6 16.84 l-6 0 z M6 36 l2 0 c2.24 0 2.24 -1.68 2.24 -12.84 c0 -10 0 -11.96 -2.24 -11.96 l-2 0 l0 24.8 z M20.1 40 l0 -32 l9.2 0 l0 3.2 l-5.2 0 l0 10.4 l4.4 0 l0 3.2 l-4.4 0 l0 11.2 l5.2 0 l0 4 l-9.2 0 z M34.6 40 l0 -32 l3.6 0 l5.24 19.6 l-0.04 -0.4 l0 -19.2 l4 0 l0 32 l-3.6 0 l-5.24 -17.6 l0.04 0.4 l0 17.2 l-4 0 z M53.940000000000005 15.52 l1.72 -6.8 c0.12 -0.48 0.36 -0.72 0.84 -0.72 l2.04 0 c0.56 0 0.84 0.36 0.68 0.88 l-2.36 6.84 c-0.16 0.48 -0.48 0.68 -0.92 0.68 l-1.28 0 c-0.56 0 -0.84 -0.36 -0.72 -0.88 z M64.96000000000001 30.240000000000002 l4.04 0 c0.08 5.16 0.48 6.16 1.92 6.16 c1.96 0 1.96 -1.64 1.96 -6 c0 -6.4 -7.92 -4.68 -7.92 -13.2 c0 -5 0 -9.6 6 -9.6 c4.44 0 5.64 2.52 5.92 8.56 l-4 0 c-0.16 -4.36 -0.64 -5.36 -1.92 -5.36 c-1.96 0 -1.96 2.16 -1.96 6.4 c0 6.2 7.96 4 7.96 13.2 c0 5.6 0 10 -6.04 10 c-4.64 0 -5.72 -2.76 -5.96 -10.16 z M93.96 40 l0 -32 l6.08 0 c4.12 0 5.48 2.56 5.48 7.16 l0 0.84 c0 2.76 -0.64 4.92 -1.36 6.48 l0 0.16 c1.48 1.24 2.4 3.68 2.6 7.92 l0 1.28 c-0.32 5.64 -1.8 8.16 -5.92 8.16 l-6.88 0 z M97.96 21.6 l2.08 0 c1.12 0 1.92 -1.32 1.92 -5.6 l0 -0.84 c0 -3.08 -0.72 -3.96 -1.92 -3.96 l-2.08 0 l0 10.4 z M97.96 36 l2.88 0 c1.2 0 2.04 -1 2.2 -4.16 l0 -1.28 c-0.16 -4.76 -1 -5.76 -2.2 -5.76 l-2.88 0 l0 11.2 z M111.66 23.16 c0 -11.16 0.24 -15.56 6.24 -15.56 s6.24 4.4 6.24 15.56 c0 12.8 -0.24 17.24 -6.24 17.24 s-6.24 -4.44 -6.24 -17.24 z M115.66 23.16 c0 11.56 0 13.24 2.24 13.24 s2.24 -1.68 2.24 -13.24 c0 -10.4 0 -12.36 -2.24 -12.36 s-2.24 1.96 -2.24 12.36 z M130.24 40 l0 -16.8 c0 -11.16 0 -15.56 6 -15.56 s6 4.4 6 15.56 l0 16.8 l-4 0 l0 -9.2 l-4 0 l0 9.2 l-4 0 z M134.24 27.6 l4 0 l0 -4.4 c0 -10.4 0 -12.36 -2 -12.36 s-2 1.96 -2 12.36 l0 4.4 z M148.74 40 l0 -32 l6.48 0 c4.12 0 5.52 2.52 5.52 7.36 c0 4.36 -0.52 6.84 -1.76 8.04 l0 0.24 c1.04 0.36 1.36 2.24 1.76 6.92 l0.8 9.44 l-4 0 l-0.52 -9.44 c-0.28 -4.76 -1 -5.76 -2.2 -5.76 l-2.08 0 l0 15.2 l-4 0 z M152.74 21.6 l2.48 0 c1.4 0 1.8 -1.4 1.8 -6.24 c0 -3.16 -0.6 -4.16 -1.8 -4.16 l-2.48 0 l0 10.4 z M167.24 40 l0 -32 l6 0 c6 0 6 4.4 6 15.16 c0 12.4 0 16.84 -6 16.84 l-6 0 z M171.24 36 l2 0 c2.24 0 2.24 -1.68 2.24 -12.84 c0 -10 0 -11.96 -2.24 -11.96 l-2 0 l0 24.8 z M184.94 23.16 c0 -11.16 0 -15.56 6 -15.56 c4.56 0 5.64 2.52 5.92 8.56 l-3.72 0 c-0.16 -4.36 -0.6 -5.36 -2.2 -5.36 c-2.24 0 -2.24 1.96 -2.24 12.36 c0 11.56 0 13.24 2.24 13.24 c2.12 0 2.24 -1.52 2.24 -10 l-2.64 0 l0 -3.2 l6.4 0 l0 1.56 c0 11.2 0 15.64 -6 15.64 s-6 -4.44 -6 -17.24 z M202.64000000000001 40 l0 -16.8 c0 -11.16 0 -15.56 6 -15.56 s6 4.4 6 15.56 l0 16.8 l-4 0 l0 -9.2 l-4 0 l0 9.2 l-4 0 z M206.64000000000001 27.6 l4 0 l0 -4.4 c0 -10.4 0 -12.36 -2 -12.36 s-2 1.96 -2 12.36 l0 4.4 z M221.14000000000001 40 l0 -32 l3.6 0 l4.2 20 l0.4 0 l4.2 -20 l3.6 0 l0 32 l-4 0 l0 -16 l-2.84 16 l-2.4 0 l-2.76 -16 l0 16 l-4 0 z M243.64000000000001 40 l0 -32 l9.2 0 l0 3.2 l-5.2 0 l0 10.4 l4.4 0 l0 3.2 l-4.4 0 l0 11.2 l5.2 0 l0 4 l-9.2 0 z M269.04 23.16 c0 -11.16 0 -15.56 5.6 -15.56 c4.12 0 5.24 2.52 5.52 8.56 l-3.72 0 c-0.16 -4.36 -0.6 -5.36 -1.8 -5.36 c-1.84 0 -1.84 1.96 -1.84 12.36 c0 11.56 0 13.24 1.84 13.24 c1.32 0 1.72 -1 1.8 -6.16 l3.76 0 c-0.24 7.4 -1.24 10.16 -5.56 10.16 c-5.6 0 -5.6 -4.44 -5.6 -17.24 z M285.5 40 l0 -32 l4 0 l0 28 l5.2 0 l0 4 l-9.2 0 z M299.40000000000003 23.16 l0 -15.16 l4 0 l0 15.16 c0 11.56 0 13.24 2 13.24 s2 -1.68 2 -13.24 l0 -15.16 l4 0 l0 15.16 c0 12.8 0 17.24 -6 17.24 s-6 -4.44 -6 -17.24 z M317.70000000000005 40 l0 -32 l6.08 0 c4.12 0 5.48 2.56 5.48 7.16 l0 0.84 c0 2.76 -0.64 4.92 -1.36 6.48 l0 0.16 c1.48 1.24 2.4 3.68 2.6 7.92 l0 1.28 c-0.32 5.64 -1.8 8.16 -5.92 8.16 l-6.88 0 z M321.70000000000005 21.6 l2.08 0 c1.12 0 1.92 -1.32 1.92 -5.6 l0 -0.84 c0 -3.08 -0.72 -3.96 -1.92 -3.96 l-2.08 0 l0 10.4 z M321.70000000000005 36 l2.88 0 c1.2 0 2.04 -1 2.2 -4.16 l0 -1.28 c-0.16 -4.76 -1 -5.76 -2.2 -5.76 l-2.88 0 l0 11.2 z"></path></g></svg>
